<svg width="48" height="48" viewBox="0 0 48 48" fill="none" xmlns="http://www.w3.org/2000/svg">
<path d="M11.4982 19V27.75C11.4982 27.9238 11.462 28.0956 11.3918 28.2546L8.63608 34.5H39.3604L36.6046 28.2546C36.5344 28.0956 36.4982 27.9238 36.4982 27.75V19C36.4982 12.0964 30.9018 6.5 23.9982 6.5C17.0947 6.5 11.4982 12.0964 11.4982 19ZM17.9983 37H8.25251C6.62687 37 5.53774 35.329 6.194 33.8417L8.99821 27.4865V19C8.99821 10.7157 15.7139 4 23.9982 4C32.2825 4 38.9982 10.7157 38.9982 19V27.4865L41.8025 33.8417C42.4588 35.329 41.3696 37 39.744 37H29.9983V38C29.9983 41.3137 27.312 44 23.9983 44C20.6846 44 17.9983 41.3137 17.9983 38V37ZM27.4983 37H20.4983V38C20.4983 39.933 22.0653 41.5 23.9983 41.5C25.9313 41.5 27.4983 39.933 27.4983 38V37Z" fill="#212121"/>
</svg>
