<svg width="24" height="24" viewBox="0 0 24 24" fill="none" xmlns="http://www.w3.org/2000/svg">
<path d="M4.5 2.75C4.5 2.3703 4.78215 2.05651 5.14823 2.00684L5.25 2H18.75C19.1642 2 19.5 2.33578 19.5 2.75C19.5 3.12969 19.2178 3.44349 18.8518 3.49315L18.75 3.5H5.25C4.83579 3.5 4.5 3.16421 4.5 2.75ZM6.38702 11.7902L6.29282 11.707C5.93237 11.3465 5.9047 10.7793 6.20977 10.387L6.29297 10.2928L11.2906 5.2962C11.6509 4.93596 12.2178 4.90809 12.6101 5.21271L12.7043 5.29579L17.7077 10.2924C18.0985 10.6827 18.0989 11.3158 17.7087 11.7066C17.3484 12.0673 16.7812 12.0955 16.3887 11.7907L16.2945 11.7076L13 8.419V21C13 21.5128 12.614 21.9355 12.1166 21.9933L12 22C11.4872 22 11.0645 21.614 11.0067 21.1166L11 21V8.416L7.70703 11.7072C7.34651 12.0676 6.77928 12.0953 6.38702 11.7902L6.29282 11.707L6.38702 11.7902Z" fill="#212121"/>
</svg>
