<svg width="24" height="24" viewBox="0 0 24 24" fill="none" xmlns="http://www.w3.org/2000/svg">
<path d="M19.5 21.25C19.5 21.6297 19.2178 21.9435 18.8518 21.9932L18.75 22H5.25C4.83579 22 4.5 21.6642 4.5 21.25C4.5 20.8703 4.78215 20.5565 5.14823 20.5069L5.25 20.5H18.75C19.1642 20.5 19.5 20.8358 19.5 21.25ZM17.613 12.2098L17.7072 12.293C18.0676 12.6535 18.0953 13.2207 17.7902 13.613L17.707 13.7072L12.7094 18.7038C12.3491 19.064 11.7822 19.0919 11.3899 18.7873L11.2957 18.7042L6.29229 13.7076C5.90149 13.3173 5.90106 12.6842 6.29132 12.2934C6.65156 11.9327 7.21877 11.9045 7.61127 12.2093L7.70553 12.2924L11 15.581V3C11 2.48716 11.386 2.06449 11.8834 2.00673L12 2C12.5128 2 12.9355 2.38604 12.9933 2.88338L13 3V15.584L16.293 12.2928C16.6535 11.9324 17.2207 11.9047 17.613 12.2098L17.7072 12.293L17.613 12.2098Z" fill="#212121"/>
</svg>
