<svg width="48" height="48" viewBox="0 0 48 48" fill="none" xmlns="http://www.w3.org/2000/svg">
<path d="M22.0946 6.89552C21.3154 5.33723 19.6859 4.07662 17.6833 4.29896C15.892 4.49786 13.2323 5.1641 11.4203 7.34756C9.55886 9.59054 8.86485 13.0894 10.2943 18.3298C11.8196 23.9213 14.0861 29.4325 16.9028 33.8803C19.6988 38.2954 23.143 41.8285 27.094 43.1836C30.5884 44.382 33.2596 43.882 35.2093 42.5657C37.0881 41.2973 38.1215 39.3884 38.6554 38.0659C39.2533 36.5851 38.8592 35.0445 38.0787 33.9094L35.2017 29.725C33.8969 27.8273 31.5078 27.0015 29.3096 27.6884L25.3345 28.9307C25.047 29.0205 24.769 28.9295 24.6108 28.7442C22.8418 26.6714 20.8583 23.7797 20.3188 20.8539C20.3009 20.7567 20.3204 20.6771 20.3522 20.6236C20.9367 19.6409 21.9435 18.527 22.9446 17.5522C24.642 15.8996 25.2844 13.2742 24.1652 11.0362L22.0946 6.89552Z" fill="#212121"/>
</svg>
