<svg width="48" height="48" viewBox="0 0 48 48" fill="none" xmlns="http://www.w3.org/2000/svg">
<path d="M17.5371 4.3835C19.5982 4.10093 21.33 5.36167 22.1495 7.00061L24.1667 11.0344C25.2858 13.2724 24.6435 15.8978 22.9461 17.5504C21.945 18.5251 20.9382 19.639 20.3537 20.6217C20.3218 20.6753 20.3024 20.7549 20.3203 20.852C20.8597 23.7778 22.8433 26.6695 24.6122 28.7423C24.7704 28.9277 25.0485 29.0186 25.3359 28.9288L29.3111 27.6866C31.5092 26.9997 33.8984 27.8255 35.2032 29.7231L38.0802 33.9075C38.8607 35.0427 39.2547 36.5833 38.6569 38.064C38.1229 39.3866 37.0896 41.2955 35.2108 42.5639C33.261 43.8802 30.5899 44.3802 27.0955 43.1817C23.1904 41.8424 19.5008 38.4824 16.4418 34.1846C13.3646 29.8611 10.8319 24.4597 9.29561 18.8279C7.84487 13.5096 8.72169 9.93128 10.783 7.62541C12.7718 5.40067 15.622 4.64604 17.5371 4.3835ZM19.9135 8.11876C19.4573 7.20643 18.6416 6.75546 17.8767 6.86033C16.1757 7.09352 14.0455 7.72697 12.6469 9.29158C11.3207 10.7751 10.4029 13.3874 11.7075 18.17C13.1718 23.5382 15.5838 28.6678 18.4786 32.7349C21.3917 36.8276 24.7015 39.7177 27.9065 40.8169C30.761 41.7959 32.5964 41.3125 33.8119 40.4919C35.0984 39.6233 35.889 38.2419 36.3387 37.128C36.5449 36.6175 36.4563 35.9584 36.0201 35.3239L33.1431 31.1395C32.4597 30.1455 31.2082 29.713 30.0568 30.0728L26.0816 31.315C24.8939 31.6862 23.5557 31.3554 22.7106 30.3652C20.8697 28.2081 18.5245 24.8999 17.8617 21.3053C17.7407 20.6489 17.8452 19.9487 18.205 19.3437C18.9626 18.0701 20.1628 16.771 21.2021 15.7592C22.2172 14.7709 22.5048 13.3006 21.9307 12.1525L19.9135 8.11876Z" fill="#212121"/>
</svg>
