<svg width="28" height="28" viewBox="0 0 28 28" fill="none" xmlns="http://www.w3.org/2000/svg">
<path d="M16.9511 2.5C17.7275 2.5 18.449 2.90029 18.86 3.55901L20.3811 5.99695H22.75C24.5449 5.99695 26 7.45203 26 9.24695V21.747C26 23.5419 24.5449 24.997 22.75 24.997H5.25C3.45507 24.997 2 23.5419 2 21.747V9.24695C2 7.45203 3.45507 5.99695 5.25 5.99695H7.81851L9.20109 3.61906C9.6039 2.92626 10.3448 2.5 11.1462 2.5H16.9511ZM16.9511 4H11.1462C10.9172 4 10.7031 4.10439 10.562 4.27964L10.4978 4.37302L8.89837 7.12393C8.7641 7.35487 8.51713 7.49695 8.25 7.49695H5.25C4.2835 7.49695 3.5 8.28045 3.5 9.24695V21.747C3.5 22.7134 4.2835 23.497 5.25 23.497H22.75C23.7165 23.497 24.5 22.7134 24.5 21.747V9.24695C24.5 8.28045 23.7165 7.49695 22.75 7.49695H19.965C19.7062 7.49695 19.4657 7.36352 19.3287 7.14395L17.5874 4.353C17.4504 4.13343 17.2099 4 16.9511 4ZM14 9.49794C17.0376 9.49794 19.5 11.9604 19.5 14.9979C19.5 18.0355 17.0376 20.4979 14 20.4979C10.9624 20.4979 8.5 18.0355 8.5 14.9979C8.5 11.9604 10.9624 9.49794 14 9.49794ZM14 10.9979C11.7909 10.9979 10 12.7888 10 14.9979C10 17.2071 11.7909 18.9979 14 18.9979C16.2091 18.9979 18 17.2071 18 14.9979C18 12.7888 16.2091 10.9979 14 10.9979Z" fill="#212121"/>
</svg>
