<svg width="28" height="28" viewBox="0 0 28 28" fill="none" xmlns="http://www.w3.org/2000/svg">
<path d="M16.9511 2.5C17.7275 2.5 18.449 2.90029 18.86 3.55901L20.3811 5.99695H22.75C24.5449 5.99695 26 7.45203 26 9.24695V21.747C26 23.5419 24.5449 24.997 22.75 24.997H5.25C3.45507 24.997 2 23.5419 2 21.747V9.24695C2 7.45203 3.45507 5.99695 5.25 5.99695H7.81851L9.20109 3.61906C9.6039 2.92626 10.3448 2.5 11.1462 2.5H16.9511ZM14 9.49964C10.9624 9.49964 8.5 11.9621 8.5 14.9996C8.5 18.0372 10.9624 20.4996 14 20.4996C17.0376 20.4996 19.5 18.0372 19.5 14.9996C19.5 11.9621 17.0376 9.49964 14 9.49964ZM14 10.9996C16.2091 10.9996 18 12.7905 18 14.9996C18 17.2088 16.2091 18.9996 14 18.9996C11.7909 18.9996 10 17.2088 10 14.9996C10 12.7905 11.7909 10.9996 14 10.9996Z" fill="#212121"/>
</svg>
