<svg width="48" height="48" viewBox="0 0 48 48" fill="none" xmlns="http://www.w3.org/2000/svg">
<path d="M41.9741 6.02297C39.2767 3.32556 34.9033 3.32569 32.2061 6.02327L8.03755 30.1947C7.27584 30.9565 6.73303 31.9091 6.46599 32.9528L4.03904 42.4378C3.9296 42.8655 4.05389 43.3192 4.36603 43.6314C4.67816 43.9436 5.13183 44.0681 5.55956 43.9587L15.0458 41.5342C16.0904 41.2672 17.0439 40.724 17.8062 39.9616L41.9744 15.7904C44.6714 13.0931 44.6713 8.72015 41.9741 6.02297ZM33.9739 7.79093C35.6949 6.06977 38.4853 6.06968 40.2064 7.79074C41.9273 9.51165 41.9274 12.3018 40.2066 14.0228L37.9999 16.2297L31.7676 9.99749L33.9739 7.79093ZM30 11.7654L36.2322 17.9976L16.0383 38.1939C15.5933 38.639 15.0366 38.9562 14.4268 39.112L6.9838 41.0144L8.88796 33.5725C9.04386 32.9632 9.36075 32.4071 9.80542 31.9624L30 11.7654Z" fill="#212121"/>
</svg>
