<svg width="48" height="48" viewBox="0 0 48 48" fill="none" xmlns="http://www.w3.org/2000/svg">
<path d="M7.91963 10.1565C12.0326 6.86021 17.9592 7.15405 21.7259 10.841L23.9975 13.0644L26.2643 10.8441C30.0306 7.15516 35.9587 6.86007 40.0727 10.1568C44.9236 14.0439 45.3143 21.2862 40.9098 25.6727L24.8798 41.6373C24.3921 42.123 23.6035 42.123 23.1157 41.6373L7.08343 25.6722C2.6788 21.286 3.06911 14.0438 7.91963 10.1565ZM19.9772 12.6276C17.1141 9.82515 12.6093 9.6018 9.48307 12.1073C5.79622 15.0621 5.49954 20.5668 8.84748 23.9007L23.9977 38.9875L39.1457 23.9013C42.4935 20.5671 42.1965 15.0623 38.5094 12.1077C35.3823 9.60186 30.8764 9.82616 28.0136 12.6302L24.8724 15.7068C24.3866 16.1827 23.6094 16.1829 23.1234 15.7071L19.9772 12.6276Z" fill="#212121"/>
</svg>
