<svg width="28" height="28" viewBox="0 0 28 28" fill="none" xmlns="http://www.w3.org/2000/svg">
<path d="M13.2898 2.0049L13.5016 2C15.8767 2 17.8387 3.84564 17.992 6.20451C18.0189 6.61786 17.7056 6.97471 17.2922 7.00157C16.8789 7.02843 16.522 6.71513 16.4952 6.30178C16.3931 4.73068 15.0848 3.5 13.5016 3.5C11.9039 3.5 10.5979 4.74892 10.5067 6.32373L10.5016 6.5L10.501 9.499L19.752 9.5C20.9947 9.5 22.002 10.5074 22.002 11.75V23.7518C22.002 24.9945 20.9947 26.0018 19.752 26.0018H7.25C6.00736 26.0018 5 24.9945 5 23.7518V11.75C5 10.5074 6.00736 9.5 7.25 9.5L9.001 9.499L9.0016 6.5C9.0016 4.08573 10.9028 2.11551 13.2898 2.0049L13.5016 2L13.2898 2.0049ZM19.752 11H7.25C6.83579 11 6.5 11.3358 6.5 11.75V23.7518C6.5 24.166 6.83579 24.5018 7.25 24.5018H19.752C20.1662 24.5018 20.502 24.166 20.502 23.7518V11.75C20.502 11.3358 20.1662 11 19.752 11ZM13.5016 16.25C14.33 16.25 15.0016 16.9216 15.0016 17.75C15.0016 18.5784 14.33 19.25 13.5016 19.25C12.6732 19.25 12.0016 18.5784 12.0016 17.75C12.0016 16.9216 12.6732 16.25 13.5016 16.25Z" fill="#212121"/>
</svg>
