<svg width="48" height="48" viewBox="0 0 48 48" fill="none" xmlns="http://www.w3.org/2000/svg">
<path d="M24 15.75C22.2051 15.75 20.75 14.2949 20.75 12.5C20.75 10.7051 22.2051 9.25 24 9.25C25.7949 9.25 27.25 10.7051 27.25 12.5C27.25 14.2949 25.7949 15.75 24 15.75ZM24 27.25C22.2051 27.25 20.75 25.7949 20.75 24C20.75 22.2051 22.2051 20.75 24 20.75C25.7949 20.75 27.25 22.2051 27.25 24C27.25 25.7949 25.7949 27.25 24 27.25ZM20.75 35.5C20.75 37.2949 22.2051 38.75 24 38.75C25.7949 38.75 27.25 37.2949 27.25 35.5C27.25 33.7051 25.7949 32.25 24 32.25C22.2051 32.25 20.75 33.7051 20.75 35.5Z" fill="#212121"/>
</svg>
