<svg width="48" height="48" viewBox="0 0 48 48" fill="none" xmlns="http://www.w3.org/2000/svg">
<path d="M19.4952 43.467C20.9737 43.8198 22.4883 43.998 24.0082 43.998C25.5249 43.9964 27.0362 43.8172 28.5112 43.464C28.899 43.3706 29.2486 43.16 29.5123 42.8608C29.7761 42.5616 29.9412 42.1884 29.9852 41.792L30.3232 38.721C30.3804 38.1718 30.6316 37.6611 31.0318 37.2807C31.432 36.9003 31.9549 36.6752 32.5062 36.646C32.8728 36.6301 33.2382 36.6986 33.5742 36.846L36.3812 38.077C36.6253 38.1867 36.8896 38.2443 37.1572 38.246C37.4248 38.2477 37.6898 38.1936 37.9352 38.087C38.1817 37.9817 38.4032 37.8257 38.5852 37.629C40.6492 35.4043 42.1901 32.7466 43.0953 29.85C43.2138 29.4657 43.21 29.0542 43.0847 28.6721C42.9593 28.2901 42.7184 27.9563 42.3952 27.717L39.9013 25.877C39.6042 25.6613 39.3624 25.3783 39.1957 25.0512C39.029 24.7241 38.9421 24.3622 38.9421 23.995C38.9421 23.6279 39.029 23.2659 39.1957 22.9388C39.3624 22.6117 39.6042 22.3288 39.9013 22.113L42.3872 20.277C42.7114 20.0374 42.9529 19.7028 43.0783 19.3197C43.2038 18.9366 43.2069 18.524 43.0872 18.139C42.1818 15.2421 40.6391 12.5847 38.5722 10.362C38.2984 10.0693 37.9405 9.86884 37.5478 9.78824C37.1552 9.70763 36.7473 9.75089 36.3803 9.91202L33.5742 11.148C33.2831 11.2792 32.9675 11.3473 32.6482 11.348C32.0721 11.3471 31.5165 11.1335 31.0882 10.7482C30.6598 10.3628 30.3889 9.83288 30.3272 9.26001L29.9873 6.20001C29.9437 5.79839 29.7757 5.42041 29.5068 5.11899C29.2378 4.81757 28.8813 4.6078 28.4873 4.51901C27.02 4.19144 25.5225 4.01749 24.0192 4C22.5053 4.01748 20.9973 4.19176 19.5192 4.52002C19.1256 4.6083 18.7694 4.81739 18.5004 5.11807C18.2315 5.41876 18.0633 5.79601 18.0192 6.19702L17.6782 9.259C17.6144 9.83248 17.3413 10.3623 16.9112 10.747C16.472 11.1201 15.9184 11.3318 15.3422 11.347C15.0245 11.3468 14.7102 11.2807 14.4192 11.153L11.6192 9.91702C11.251 9.75445 10.8413 9.71059 10.447 9.7916C10.0528 9.8726 9.69353 10.0744 9.41924 10.369C7.35497 12.5921 5.81372 15.2486 4.90824 18.144C4.78867 18.5288 4.79181 18.9413 4.91724 19.3242C5.04268 19.7071 5.28417 20.0415 5.60824 20.281L8.09724 22.117C8.39186 22.3346 8.63144 22.6181 8.79676 22.9449C8.96208 23.2718 9.04856 23.6328 9.04925 23.999C9.04958 24.3659 8.96358 24.7277 8.79819 25.0551C8.63281 25.3826 8.39268 25.6665 8.09724 25.884L5.60725 27.723C5.28358 27.9624 5.04234 28.2964 4.91692 28.6789C4.79151 29.0614 4.78811 29.4735 4.90723 29.858C5.81076 32.7562 7.3518 35.4152 9.41724 37.64C9.59666 37.8342 9.81464 37.9889 10.0572 38.094C10.302 38.2016 10.5664 38.2571 10.8337 38.2571C11.1011 38.2571 11.3655 38.2016 11.6102 38.094L14.4292 36.857C14.7201 36.7288 15.0344 36.6628 15.3522 36.663H15.3602C15.9341 36.6638 16.4876 36.8755 16.9154 37.258C17.3432 37.6404 17.6154 38.1668 17.6802 38.737L18.0182 41.794C18.0624 42.1909 18.2279 42.5646 18.4923 42.864C18.7566 43.1634 19.1068 43.374 19.4952 43.467ZM24.001 30.249C20.5492 30.249 17.751 27.4508 17.751 23.999C17.751 20.5472 20.5492 17.749 24.001 17.749C27.4528 17.749 30.251 20.5472 30.251 23.999C30.251 27.4508 27.4528 30.249 24.001 30.249Z" fill="#212121"/>
</svg>
