<svg width="24" height="24" viewBox="0 0 24 24" fill="none" xmlns="http://www.w3.org/2000/svg">
<g id="Size=24, Theme=Regular">
<path id="Shape" d="M8.50215 11.4976C9.05562 11.4976 9.5043 11.9463 9.5043 12.4997C9.5043 13.0532 9.05562 13.5019 8.50215 13.5019C7.94868 13.5019 7.5 13.0532 7.5 12.4997C7.5 11.9463 7.94868 11.4976 8.50215 11.4976ZM12 4.35174V10.4976L12.0005 11.0025L19.442 11.0016L17.7196 9.27782C17.4534 9.0115 17.4292 8.59484 17.6471 8.30126L17.7198 8.21716C17.9861 7.95094 18.4027 7.9268 18.6963 8.14471L18.7804 8.21734L21.777 11.215C22.043 11.481 22.0674 11.8973 21.85 12.1908L21.7775 12.2749L18.7809 15.2784C18.4884 15.5716 18.0135 15.5722 17.7203 15.2796C17.4537 15.0136 17.429 14.597 17.6465 14.3031L17.7191 14.2189L19.432 12.5016L12.0005 12.5025L12 19.2476C12 19.714 11.5788 20.0673 11.1196 19.9861L2.61955 18.4849C2.26121 18.4216 2 18.1102 2 17.7463V5.74758C2 5.38027 2.26601 5.06701 2.62847 5.00749L11.1285 3.61166C11.5851 3.53667 12 3.88901 12 4.35174ZM10.5 5.23495L3.5 6.38446V17.1171L10.5 18.3535V5.23495ZM13 18.4988L13.7652 18.499L13.867 18.4922C14.2335 18.4424 14.5158 18.1279 14.5152 17.7478L14.508 13.4976H13V18.4988ZM13.002 9.99758L13 8.72292V4.99757L13.7453 4.99758C14.1245 4.99758 14.4381 5.27909 14.4883 5.64469L14.4953 5.74633L14.502 9.99758H13.002Z" fill="#212121"/>
</g>
</svg>
