<svg width="32" height="32" viewBox="0 0 32 32" fill="none" xmlns="http://www.w3.org/2000/svg">
<path d="M30.1457 10.3277L21.0778 9.00984L17.0242 0.791978C16.9135 0.566978 16.7314 0.384835 16.5064 0.27412C15.9421 -0.00445108 15.2564 0.227692 14.9742 0.791978L10.9207 9.00984L1.8528 10.3277C1.6028 10.3634 1.37423 10.4813 1.19923 10.6598C0.987665 10.8773 0.871082 11.1698 0.875101 11.4732C0.879119 11.7766 1.00341 12.0659 1.22066 12.2777L7.78137 18.6741L6.23137 27.7063C6.19502 27.9164 6.21828 28.1325 6.29849 28.33C6.3787 28.5276 6.51266 28.6987 6.68519 28.824C6.85771 28.9493 7.0619 29.0238 7.27459 29.039C7.48727 29.0541 7.69996 29.0094 7.88852 28.9098L15.9992 24.6455L24.1099 28.9098C24.3314 29.0277 24.5885 29.067 24.8349 29.0241C25.4564 28.917 25.8742 28.3277 25.7671 27.7063L24.2171 18.6741L30.7778 12.2777C30.9564 12.1027 31.0742 11.8741 31.1099 11.6241C31.2064 10.9991 30.7707 10.4206 30.1457 10.3277ZM21.4564 17.7741L22.7457 25.2848L15.9992 21.742L9.2528 25.2884L10.5421 17.7777L5.08494 12.4563L12.6278 11.3598L15.9992 4.52769L19.3707 11.3598L26.9135 12.4563L21.4564 17.7741Z" fill="black" fill-opacity="0.86"/>
</svg>
